<?xml version="1.0" standalone="no"?>
<!DOCTYPE svg PUBLIC "-//W3C//DTD SVG 20010904//EN"
 "http://www.w3.org/TR/2001/REC-SVG-20010904/DTD/svg10.dtd">
<svg version="1.0" xmlns="http://www.w3.org/2000/svg"
 width="1728.000000pt" height="1728.000000pt" viewBox="0 0 1728.000000 1728.000000"
 preserveAspectRatio="xMidYMid meet">
<metadata>
Created by potrace 1.14, written by Peter Selinger 2001-2017
</metadata>
<g transform="translate(0.000000,1728.000000) scale(0.100000,-0.100000)"
fill="#000000" stroke="none">
<path d="M1925 11816 c-29 -31 -76 -135 -128 -281 -8 -22 -83 -218 -166 -435
-84 -217 -154 -399 -155 -405 -2 -5 -7 -19 -11 -30 -5 -11 -17 -42 -27 -70
-10 -27 -22 -59 -27 -70 -5 -11 -18 -45 -29 -75 -12 -30 -78 -203 -147 -385
-70 -181 -151 -395 -181 -475 -30 -80 -59 -154 -63 -165 -5 -11 -15 -38 -24
-60 -8 -22 -22 -58 -31 -80 -30 -75 -39 -100 -41 -110 -2 -6 -22 -60 -46 -120
-24 -61 -44 -114 -46 -120 -1 -5 -23 -64 -49 -130 -59 -150 -59 -177 -4 -310
22 -55 40 -100 40 -100 -1 0 3 -11 8 -25 5 -14 60 -158 122 -320 61 -162 120
-314 131 -337 10 -24 19 -46 19 -50 0 -11 201 -536 216 -565 8 -14 14 -33 14
-41 0 -9 7 -28 14 -44 8 -15 33 -75 54 -133 39 -103 132 -346 155 -405 6 -16
12 -32 13 -35 1 -7 14 -41 24 -65 16 -37 110 -284 110 -290 0 -3 9 -24 19 -48
11 -23 49 -121 85 -217 136 -366 151 -390 237 -390 76 0 127 58 122 138 -2 20
-103 297 -138 377 -8 17 -20 48 -28 70 -15 42 -130 349 -150 400 -6 17 -11 33
-9 38 1 4 -3 7 -8 7 -6 0 -10 5 -10 12 0 12 -74 213 -111 303 -25 60 -59 153
-59 159 0 5 -7 22 -14 39 -8 18 -51 129 -96 247 -44 118 -85 224 -90 235 -5
11 -30 76 -56 145 -26 69 -55 145 -64 170 -9 25 -34 90 -54 145 -21 55 -48
127 -61 160 -61 157 -97 251 -144 380 -29 77 -57 148 -62 157 -14 27 -12 38
31 144 23 54 40 99 40 99 -3 0 85 231 105 280 7 17 30 75 50 130 20 55 40 105
43 110 4 6 7 15 8 20 1 6 22 62 47 125 24 63 108 282 186 485 237 616 251 651
353 915 54 140 100 260 102 265 2 6 6 19 11 30 4 11 27 71 51 133 24 62 44
115 44 118 0 3 6 20 14 37 84 191 90 269 27 324 -20 18 -38 23 -80 23 -48 0
-57 -3 -86 -34z"/>
<path d="M7945 11820 c-16 -16 -25 -30 -22 -30 4 0 2 -10 -5 -22 -18 -34 -19
-6170 -1 -6243 17 -69 49 -95 116 -95 65 1 93 21 111 80 20 68 17 6243 -3
6280 -29 53 -41 60 -106 60 -55 0 -64 -3 -90 -30z"/>
<path d="M15193 11835 c-31 -22 -59 -76 -56 -110 2 -27 21 -87 43 -140 14 -33
75 -190 75 -195 1 -3 9 -22 18 -44 9 -21 17 -41 17 -45 0 -3 23 -65 50 -136
28 -72 60 -155 71 -185 11 -30 25 -64 29 -75 5 -11 21 -51 35 -90 15 -38 33
-86 40 -105 8 -19 32 -84 55 -145 23 -60 47 -123 53 -140 7 -16 12 -32 12 -35
0 -3 3 -10 7 -15 4 -6 23 -56 43 -110 21 -55 52 -138 70 -185 18 -47 52 -134
75 -195 23 -60 46 -119 50 -130 5 -11 23 -58 40 -105 31 -87 46 -122 61 -152
5 -10 9 -22 9 -27 0 -5 5 -22 12 -38 6 -15 12 -30 13 -33 1 -3 5 -13 9 -22 4
-9 9 -22 10 -30 2 -7 10 -30 20 -50 9 -21 16 -43 16 -51 0 -7 4 -17 9 -23 5
-5 23 -49 41 -99 17 -49 35 -97 40 -106 5 -9 31 -79 60 -155 49 -135 64 -172
80 -204 4 -8 3 -22 -2 -30 -4 -8 -28 -67 -52 -130 -114 -304 -287 -757 -295
-775 -5 -11 -57 -146 -116 -300 -58 -154 -113 -296 -120 -315 -49 -118 -228
-589 -233 -610 -3 -14 -11 -34 -17 -45 -7 -11 -18 -38 -25 -60 -7 -22 -17 -49
-23 -60 -6 -11 -12 -25 -13 -31 -1 -5 -54 -147 -119 -315 -160 -418 -158 -411
-144 -462 6 -24 24 -54 42 -69 25 -23 40 -28 83 -28 70 0 90 22 143 155 23 57
41 105 41 108 0 2 8 22 17 43 9 22 18 42 19 47 1 4 3 9 4 12 1 3 3 8 5 13 1 4
7 20 13 35 7 16 12 33 12 38 0 5 4 17 10 27 12 21 90 224 90 235 0 4 9 26 19
50 11 23 28 67 39 97 11 30 26 69 33 85 7 17 13 32 13 35 1 3 7 19 13 35 21
51 242 633 300 785 61 164 100 266 112 295 35 82 51 126 51 139 0 9 4 16 8 16
5 0 9 6 9 13 0 11 218 586 258 680 8 20 12 37 8 37 -5 0 -3 4 2 8 6 4 19 32
29 62 10 30 22 60 26 65 9 12 24 71 25 100 0 18 -21 87 -44 140 -5 11 -19 47
-31 80 -12 33 -26 69 -30 80 -5 11 -39 101 -76 200 -37 99 -94 250 -126 335
-75 198 -244 647 -273 725 -13 33 -66 175 -119 315 -54 140 -98 260 -100 265
-3 10 -19 53 -33 85 -3 8 -7 20 -9 25 -1 6 -23 64 -49 130 -26 66 -51 134 -56
150 -5 17 -13 39 -19 50 -5 11 -48 124 -96 250 -105 282 -118 313 -151 348
-23 23 -35 27 -83 27 -33 0 -64 -6 -77 -15z"/>
<path d="M10325 11422 c-52 -8 -66 -14 -81 -37 -25 -38 -27 -112 -3 -136 21
-21 16 -20 179 -24 222 -5 378 -22 405 -45 10 -8 9 -24 -3 -73 -8 -34 -15 -68
-15 -74 0 -7 -4 -13 -9 -13 -5 0 -7 -4 -4 -8 3 -5 -6 -51 -20 -103 -13 -52
-26 -103 -28 -114 -3 -11 -12 -48 -21 -82 -9 -35 -18 -71 -20 -80 -1 -10 -8
-38 -15 -63 -7 -25 -14 -53 -16 -62 -5 -23 -7 -31 -39 -158 -15 -58 -28 -112
-30 -120 -2 -8 -42 -170 -90 -360 -47 -190 -88 -352 -90 -360 -1 -8 -8 -35
-15 -60 -7 -25 -14 -56 -17 -70 -2 -14 -17 -77 -34 -140 -17 -63 -33 -126 -35
-140 -3 -14 -12 -50 -20 -80 -8 -30 -17 -64 -19 -75 -3 -11 -21 -85 -41 -165
-20 -80 -37 -152 -39 -160 -2 -8 -15 -62 -30 -120 -15 -58 -28 -112 -30 -120
-3 -16 -42 -172 -51 -205 -3 -11 -10 -38 -14 -60 -5 -22 -14 -56 -20 -75 -6
-19 -14 -48 -17 -65 -2 -16 -15 -69 -28 -118 -13 -48 -24 -90 -24 -92 -1 -13
-13 -62 -18 -75 -3 -8 -8 -23 -10 -33 -1 -10 -12 -38 -23 -62 -11 -24 -20 -47
-20 -50 0 -9 -60 -95 -89 -128 -53 -59 -177 -124 -281 -146 -90 -19 -92 -20
-265 -36 -56 -5 -69 -11 -89 -47 -26 -43 -24 -104 3 -131 24 -24 71 -26 391
-12 221 10 421 10 625 1 354 -16 398 -15 430 18 18 18 32 69 29 100 -5 50 -30
65 -119 71 -207 13 -301 41 -368 108 -62 62 -78 163 -45 284 10 37 20 77 22
88 10 45 67 273 76 305 13 46 39 151 55 220 7 30 21 82 30 115 9 33 20 78 25
100 4 22 50 204 100 405 96 381 97 388 104 419 7 30 36 142 46 176 4 17 45
181 90 365 45 184 85 342 88 350 3 8 6 22 8 30 8 40 205 827 210 840 6 14 54
-74 97 -180 11 -25 27 -64 38 -87 10 -24 19 -45 19 -48 0 -2 11 -28 24 -57 13
-29 40 -93 61 -143 20 -49 44 -106 53 -125 9 -19 17 -37 17 -40 1 -3 6 -16 12
-30 6 -14 23 -54 38 -90 15 -36 38 -89 51 -118 13 -29 24 -58 24 -65 0 -7 4
-17 9 -22 4 -6 30 -62 56 -125 26 -63 56 -133 65 -155 10 -22 48 -112 85 -200
37 -88 75 -179 86 -202 10 -24 19 -45 19 -47 0 -2 10 -25 22 -52 12 -27 23
-51 23 -54 1 -3 7 -16 13 -30 6 -14 30 -70 53 -125 22 -55 52 -124 65 -153 13
-29 24 -55 24 -57 0 -3 10 -27 21 -53 26 -57 35 -80 89 -207 50 -119 64 -152
95 -225 13 -30 72 -170 131 -310 58 -140 114 -273 124 -295 10 -22 30 -69 45
-105 15 -36 33 -80 41 -97 27 -63 67 -157 134 -318 23 -55 49 -115 58 -133 26
-52 75 -69 138 -48 18 5 37 45 50 101 1 6 10 39 19 75 10 36 19 75 20 87 2 12
6 26 9 31 3 6 12 38 20 73 8 35 28 118 45 184 17 66 33 132 36 147 2 15 10 47
18 70 8 24 17 57 20 73 3 17 24 104 47 195 23 91 43 172 45 180 2 8 20 80 40
160 21 80 39 154 41 165 2 11 11 47 20 80 9 33 17 67 19 75 2 8 8 35 15 60 7
25 14 52 15 60 2 8 18 69 35 135 17 66 33 133 36 149 3 16 7 32 9 36 2 3 6 17
8 31 3 13 10 44 17 69 7 25 14 52 15 60 6 26 83 332 105 415 11 44 23 91 26
105 3 14 12 52 21 85 8 33 16 67 18 75 2 8 8 35 15 60 7 25 14 52 15 60 2 8
24 95 49 193 25 99 47 191 50 205 2 15 11 48 19 75 8 26 13 47 11 47 -2 0 1
11 6 25 5 14 12 36 14 48 7 41 47 150 73 201 37 72 135 166 213 203 92 44 181
66 315 78 166 15 180 21 199 84 14 50 7 90 -21 112 -17 15 -127 16 -408 4
-227 -10 -393 -10 -615 0 -301 14 -386 12 -410 -10 -39 -35 -48 -137 -15 -165
7 -6 44 -13 81 -15 238 -15 357 -56 412 -140 52 -82 47 -165 -23 -435 -9 -36
-18 -72 -20 -80 -2 -8 -11 -44 -20 -80 -9 -36 -19 -73 -21 -82 -9 -42 -14 -58
-38 -148 -14 -52 -27 -106 -29 -120 -3 -14 -10 -45 -17 -70 -7 -25 -12 -47
-12 -50 0 -3 -4 -15 -9 -28 -5 -12 -11 -33 -13 -45 -2 -12 -27 -114 -56 -226
-29 -113 -54 -216 -57 -230 -2 -13 -6 -28 -9 -33 -3 -4 -7 -16 -9 -25 -3 -18
-84 -339 -111 -443 -8 -30 -17 -64 -19 -75 -3 -11 -12 -47 -20 -80 -9 -33 -18
-71 -21 -85 -3 -14 -10 -43 -16 -65 -6 -22 -13 -44 -14 -50 -2 -5 -6 -23 -9
-40 -3 -16 -10 -43 -15 -60 -5 -16 -12 -43 -16 -60 -9 -37 -6 -27 -43 -170
-17 -66 -33 -129 -36 -140 -22 -97 -50 -195 -55 -195 -4 0 -14 17 -22 38 -8
20 -73 172 -143 337 -157 371 -148 349 -149 355 -1 3 -9 21 -18 40 -14 30 -77
179 -103 245 -5 11 -7 23 -7 28 1 4 -2 7 -8 7 -5 0 -10 7 -10 15 0 8 -4 23 -9
33 -5 9 -16 33 -24 52 -8 19 -45 107 -82 195 -80 189 -83 198 -143 335 -11 25
-61 144 -112 265 -100 239 -174 413 -195 460 -8 17 -57 134 -110 260 -54 127
-117 277 -141 335 -25 58 -50 116 -55 130 -75 181 -127 286 -152 304 -27 20
-38 20 -545 21 -284 0 -526 -1 -537 -3z"/>
<path d="M3190 11379 c-44 -9 -80 -30 -80 -46 0 -7 -4 -13 -8 -13 -4 0 -16
-24 -26 -52 -10 -29 -20 -60 -23 -68 -3 -8 -7 -19 -9 -25 -1 -5 -50 -149 -109
-320 -59 -170 -108 -317 -110 -325 -2 -8 -4 -15 -4 -15 -4 0 -171 -503 -171
-515 0 -22 38 -56 71 -63 50 -12 77 23 132 178 55 154 111 302 129 345 73 170
156 327 195 368 7 7 13 17 13 21 0 3 26 34 58 67 112 117 244 186 429 225 110
23 126 25 308 35 153 8 647 9 688 1 43 -9 57 -25 57 -66 0 -38 -2 -44 -45
-206 -28 -107 -32 -123 -41 -169 -2 -16 -7 -32 -9 -36 -2 -3 -6 -17 -9 -31 -3
-13 -26 -105 -51 -204 -25 -99 -47 -192 -50 -207 -3 -15 -9 -38 -15 -52 -5
-15 -7 -26 -4 -26 2 0 0 -8 -5 -17 -5 -10 -11 -31 -14 -48 -6 -34 -103 -422
-111 -445 -3 -8 -8 -26 -10 -40 -3 -14 -12 -54 -21 -90 -9 -36 -18 -74 -20
-84 -3 -10 -9 -33 -14 -50 -6 -17 -12 -42 -15 -56 -2 -14 -9 -43 -14 -65 -41
-164 -64 -255 -72 -285 -6 -19 -26 -98 -44 -175 -19 -77 -51 -205 -71 -285
-20 -80 -38 -152 -40 -160 -2 -8 -22 -89 -45 -180 -23 -91 -44 -178 -47 -195
-3 -16 -9 -38 -15 -48 -5 -10 -7 -21 -5 -24 3 -3 -1 -24 -10 -46 -15 -43 -19
-57 -28 -115 -2 -18 -10 -43 -17 -55 -6 -12 -10 -23 -9 -25 1 -1 0 -15 -3 -30
-4 -15 -8 -36 -11 -47 -2 -11 -8 -35 -14 -53 -5 -18 -10 -36 -11 -40 -7 -55
-46 -139 -82 -179 -34 -36 -151 -78 -248 -89 -58 -6 -267 -15 -435 -19 -193
-4 -221 -7 -243 -28 -17 -17 -27 -86 -18 -122 11 -42 48 -51 203 -48 76 1 289
5 473 9 424 8 606 8 1005 0 575 -12 640 -12 666 -2 55 20 85 125 47 165 -22
24 -6 23 -258 26 -277 4 -404 13 -480 32 -14 3 -31 7 -39 9 -8 1 -18 9 -22 16
-5 7 -9 9 -9 3 0 -5 -9 3 -19 19 -23 35 -24 87 -4 160 13 46 50 189 58 226 2
8 22 89 45 180 22 91 43 176 46 190 2 14 7 32 10 40 3 8 8 24 10 35 2 11 19
82 39 158 19 77 37 149 39 160 3 12 23 94 46 182 22 88 43 171 46 185 3 14 14
61 25 105 12 44 22 87 24 95 2 8 16 65 30 125 15 61 29 117 30 125 2 8 4 15 5
15 2 0 6 18 14 55 3 14 20 79 37 145 17 66 33 134 35 150 3 17 8 37 11 45 8
18 7 15 18 65 4 22 9 45 11 50 3 13 55 217 59 230 4 17 16 68 31 130 8 33 17
71 20 85 3 14 9 39 15 55 10 33 76 300 93 380 1 6 5 19 9 30 3 11 8 31 11 45
2 14 12 54 21 90 9 36 18 72 20 80 13 57 49 152 72 187 24 38 34 44 83 54 63
13 621 16 765 4 50 -4 104 -8 120 -10 86 -7 183 -33 251 -68 78 -40 156 -133
168 -202 3 -13 7 -28 9 -32 19 -31 26 -268 13 -398 -4 -33 -8 -78 -10 -100 -3
-22 -7 -60 -10 -85 -4 -25 -9 -61 -11 -80 -3 -19 -7 -46 -10 -60 -6 -27 -15
-83 -19 -115 -7 -57 56 -104 112 -84 31 11 59 65 67 132 1 12 5 40 9 62 4 22
9 54 11 70 2 17 7 44 10 60 10 58 25 161 30 215 2 14 4 25 5 25 1 0 4 14 6 30
2 17 8 62 14 100 7 39 14 84 16 100 2 17 6 41 9 55 3 14 7 41 9 60 5 38 12 86
26 170 5 30 12 73 15 95 3 23 8 52 11 65 9 43 13 124 8 153 -3 15 -15 33 -27
39 -17 10 -446 13 -1893 13 -1029 0 -1886 -3 -1904 -6z"/>
</g>
</svg>
